<svg xmlns="http://www.w3.org/2000/svg" viewBox="0 0 48 48"><g fill="#595959"><path d="M31.65 2c2.805 0 6.247 1.979 7.649 4.4l7.649 13.199c1.402 2.421 1.402 6.381 0 8.802L39.299 41.6c-1.403 2.421-4.845 4.4-7.649 4.4H16.351c-2.805 0-6.247-1.979-7.649-4.4l-7.65-13.199c-1.402-2.421-1.402-6.381 0-8.802L8.702 6.4C10.104 3.979 13.546 2 16.351 2H31.65z"/><path d="M31.65 2c2.805 0 6.247 1.979 7.649 4.4l7.649 13.199c1.402 2.421 1.402 6.381 0 8.802L39.299 41.6c-1.403 2.421-4.845 4.4-7.649 4.4H16.351c-2.805 0-6.247-1.979-7.649-4.4l-7.65-13.199c-1.402-2.421-1.402-6.381 0-8.802L8.702 6.4C10.104 3.979 13.546 2 16.351 2H31.65z"/></g><path d="M13.365 22.737c-.047 0 .514 1.206.529 1.206 1.224 2.22 3.582 3.6 7.56 3.981-.568.431-1.25 1.25-1.345 2.194-.714.461-2.15.614-3.265.262-1.564-.494-2.163-3.588-4.505-3.147-.507.095-.406.43.032.714.714.461 1.386 1.039 1.903 2.269.399.943 1.235 2.631 3.881 2.631 1.049 0 1.785-.127 1.785-.127s.02 2.41.02 3.347c0 1.081-1.46 1.386-1.46 1.905 0 .205.484.225.871.225.767 0 2.363-.64 2.363-1.763 0-.892.015-3.892.015-4.417 0-1.147.615-1.511.615-1.511s.076 6.125-.147 6.946c-.262.965-.735.828-.735 1.259 0 .641 1.921.156 2.558-1.25.492-1.094.277-7.103.277-7.103l.525-.011s.03 2.75.011 4.008c-.018 1.302-.107 2.949.667 3.725.508.51 2.156 1.407 2.156.588 0-.476-.903-.866-.903-2.153V30.59c.721 0 .613 1.947.613 1.947l.052 3.621s-.159 1.319 1.428 1.87c.56.197 1.756.248 1.813-.079.057-.329-1.442-.819-1.456-1.841-.009-.622.028-.986.028-3.693 0-2.708-.364-3.708-1.632-4.505 3.911-.401 6.333-1.369 7.512-3.959.092.002.481-1.21.43-1.21.264-.978.409-2.135.435-3.504-.007-3.715-1.785-5.029-2.126-5.645.504-2.813-.085-4.092-.357-4.531-1.008-.358-3.506.922-4.872 1.823-2.224-.65-6.928-.588-8.692.168-3.255-2.329-4.977-1.972-4.977-1.972s-1.113 1.993-.294 4.91c-1.071 1.364-1.869 2.329-1.869 4.887.004 1.444.174 2.734.556 3.86z" fill="#fff"/></svg>
