<svg xmlns="http://www.w3.org/2000/svg" viewBox="0 0 48 48"><g fill="#2daae1"><path d="M31.649 2c2.805 0 6.247 1.979 7.649 4.4l7.649 13.2c1.402 2.421 1.402 6.381 0 8.801L39.299 41.6c-1.402 2.421-4.845 4.4-7.649 4.4H16.351c-2.805 0-6.247-1.979-7.649-4.4l-7.65-13.199C-.35 25.98-.35 22.02 1.052 19.6L8.701 6.4c1.403-2.421 4.845-4.4 7.65-4.4h15.298z"/><path d="M31.649 2c2.805 0 6.247 1.979 7.649 4.4l7.649 13.2c1.402 2.421 1.402 6.381 0 8.801L39.299 41.6c-1.402 2.421-4.845 4.4-7.649 4.4H16.351c-2.805 0-6.247-1.979-7.649-4.4l-7.65-13.199C-.35 25.98-.35 22.02 1.052 19.6L8.701 6.4c1.403-2.421 4.845-4.4 7.65-4.4h15.298z"/></g><path d="M38.173 12.442a12.442 12.442 0 01-3.91 1.472A6.186 6.186 0 0029.771 12c-3.398 0-6.154 2.713-6.154 6.059 0 .475.055.936.158 1.38a17.57 17.57 0 01-12.686-6.33 5.963 5.963 0 00-.834 3.046c0 2.101 1.089 3.956 2.739 5.042a6.226 6.226 0 01-2.788-.757v.076c0 2.935 2.122 5.384 4.938 5.942a6.28 6.28 0 01-2.781.103c.785 2.406 3.057 4.159 5.75 4.208a12.476 12.476 0 01-7.645 2.594c-.498 0-.986-.029-1.469-.085A17.634 17.634 0 0018.435 36c11.322 0 17.512-9.231 17.512-17.238a17 17 0 00-.016-.784 12.385 12.385 0 003.07-3.137 12.423 12.423 0 01-3.535.954 6.096 6.096 0 002.707-3.353z" fill="#fff"/></svg>
